<?xml version="1.0" standalone="no"?>
<!DOCTYPE svg PUBLIC "-//W3C//DTD SVG 20010904//EN"
 "http://www.w3.org/TR/2001/REC-SVG-20010904/DTD/svg10.dtd">
<svg version="1.0" xmlns="http://www.w3.org/2000/svg"
 width="360.000000pt" height="360.000000pt" viewBox="0 0 360.000000 360.000000"
 preserveAspectRatio="xMidYMid meet">
<metadata>
Created by potrace 1.14, written by Peter Selinger 2001-2017
</metadata>
<g transform="translate(0.000000,360.000000) scale(0.100000,-0.100000)"
fill="#000000" stroke="none">
<path d="M1811 3073 c-12 -8 -81 -26 -153 -39 -107 -20 -138 -22 -165 -13 -43
14 -61 7 -74 -28 -11 -31 -174 -147 -222 -157 -20 -5 -33 -17 -44 -43 -21 -51
-88 -149 -140 -206 -26 -27 -42 -54 -39 -62 6 -17 -55 -200 -85 -254 -17 -30
-21 -49 -16 -81 6 -50 -15 -227 -32 -258 -9 -17 -8 -29 3 -56 20 -48 40 -255
27 -288 -7 -20 -5 -33 11 -59 32 -52 88 -228 88 -275 0 -36 5 -46 30 -64 34
-24 112 -140 146 -216 17 -40 30 -54 54 -63 42 -14 187 -115 228 -158 28 -29
37 -34 62 -28 39 9 252 -32 303 -57 36 -18 41 -18 80 -4 65 24 257 59 289 52
23 -4 36 1 66 28 47 42 168 120 206 132 16 6 33 17 36 25 52 112 120 215 150
224 15 5 20 15 20 45 0 55 46 194 76 230 21 24 25 37 20 63 -10 47 -6 166 6
212 12 44 13 92 3 146 -4 22 -1 60 9 97 8 34 13 67 11 74 -4 10 -107 13 -488
12 l-482 -1 3 -24 c11 -77 12 -308 2 -343 -16 -52 3 -69 57 -54 20 5 73 7 117
4 98 -7 91 -7 196 0 110 7 116 2 99 -88 -31 -165 -56 -224 -122 -285 -36 -33
-58 -44 -118 -58 -85 -19 -244 -21 -316 -4 -122 30 -241 138 -291 266 -33 83
-47 138 -43 164 1 9 -8 43 -21 75 -20 53 -22 77 -22 239 1 163 3 189 27 280
28 102 81 225 98 225 5 0 9 6 9 14 0 20 114 160 142 173 42 22 162 53 214 57
62 4 106 -10 177 -57 58 -39 101 -84 130 -137 15 -28 21 -31 45 -25 45 13 334
17 345 6 24 -24 77 -6 77 27 0 7 -18 37 -41 65 -62 80 -160 264 -169 320 -4
27 -14 53 -21 58 -8 5 -37 9 -64 9 -38 0 -94 16 -220 65 -94 36 -181 73 -195
83 -39 28 -56 32 -79 15z m17 -59 c23 -16 55 -68 47 -76 -6 -5 -273 37 -281
44 -4 4 118 32 206 47 3 1 16 -6 28 -15z m232 -60 c166 -57 166 -62 -2 -45
-100 11 -141 29 -168 74 -28 46 -25 49 23 27 23 -11 89 -36 147 -56z m-362
-28 c73 -13 135 -26 138 -28 6 -6 -305 -88 -334 -88 -20 0 -22 5 -22 63 0 35
3 67 7 70 12 12 76 7 211 -17z m-254 -12 c11 -28 6 -69 -9 -92 -15 -21 -21
-21 -103 -16 -48 4 -88 8 -90 9 -3 3 180 114 189 115 4 0 10 -7 13 -16z m716
-49 c122 -9 140 -13 140 -36 0 -21 -29 -80 -55 -113 -17 -22 -12 -25 -190 107
l-80 59 50 -6 c28 -3 88 -8 135 -11z m-270 1 c0 -2 -10 -30 -22 -63 -24 -66
-44 -93 -67 -93 -22 0 -271 63 -267 67 2 2 55 17 117 33 63 17 137 36 164 44
53 15 75 19 75 12z m63 -101 c34 -92 42 -125 28 -125 -21 0 -100 44 -106 59
-7 18 36 154 45 143 4 -4 18 -38 33 -77z m44 62 c15 -13 62 -46 103 -74 105
-70 111 -79 63 -92 -91 -24 -111 -24 -129 -3 -21 25 -85 192 -74 192 5 0 21
-11 37 -23z m405 -100 c26 -45 57 -102 70 -127 13 -25 32 -57 42 -72 10 -16
16 -28 13 -28 -9 0 -200 130 -224 153 -13 11 -23 28 -23 36 0 27 48 121 62
121 7 0 34 -37 60 -83z m-976 18 c11 -15 13 -35 9 -80 -6 -63 -14 -149 -15
-175 0 -17 -180 253 -180 271 0 7 28 10 86 8 72 -3 88 -7 100 -24z m-129 -136
c74 -113 93 -149 79 -149 -10 0 -280 72 -302 80 -13 5 -24 16 -24 23 0 13 85
144 117 179 22 25 32 15 130 -133z m337 106 c76 -18 140 -36 143 -39 3 -2 -15
-10 -38 -16 -116 -30 -134 -40 -209 -114 l-75 -74 6 128 c6 122 11 150 27 150
4 0 69 -16 146 -35z m570 -107 c-13 -45 -45 -108 -53 -108 -11 0 -81 80 -81
91 0 10 85 37 118 38 20 1 22 -3 16 -21z m83 10 c32 -14 203 -126 203 -133 0
-3 -66 -5 -146 -5 l-146 0 7 33 c8 37 41 117 49 117 3 0 18 -5 33 -12z m-1077
-147 c84 -22 155 -42 157 -45 7 -7 -3 -10 -101 -36 -101 -25 -118 -25 -143 3
-41 45 -83 117 -69 117 2 0 73 -18 156 -39z m-144 -51 c32 -47 44 -74 38 -80
-11 -11 -176 -81 -180 -77 -5 5 80 227 87 227 4 0 28 -32 55 -70z m328 -57
c-12 -50 -59 -143 -71 -143 -19 0 -118 84 -118 101 0 9 29 24 80 41 107 35
117 35 109 1z m-221 -74 c28 -15 80 -58 89 -73 6 -11 -65 -5 -242 20 l-45 6
60 28 c66 31 105 36 138 19z m-26 -104 c148 -17 159 -20 167 -42 6 -15 -11
-183 -19 -191 -6 -7 -334 237 -335 249 0 3 12 4 28 2 15 -1 87 -10 159 -18z
m-181 -28 c17 -12 89 -67 159 -122 l127 -100 -168 -3 c-93 -1 -175 0 -182 3
-12 4 -13 22 -8 93 13 163 16 169 72 129z m1258 -193 c34 -5 46 -11 46 -24 0
-25 -43 -85 -62 -85 -9 0 -44 22 -79 50 l-64 50 40 6 c61 9 69 9 119 3z m454
-4 c15 -2 -58 -143 -113 -215 -22 -28 -37 -16 -129 106 l-79 104 104 6 c81 4
187 4 217 -1z m-693 -52 c-4 -29 -9 -55 -12 -58 -6 -6 -93 90 -93 102 0 5 25
8 56 8 l56 0 -7 -52z m127 -27 c53 -42 56 -46 36 -54 -12 -4 -45 -7 -73 -5
-49 3 -50 4 -53 37 -5 47 6 84 21 75 7 -4 38 -28 69 -53z m-213 -6 c52 -63 53
-94 7 -145 -18 -20 -38 -46 -44 -56 -21 -38 -26 -9 -24 149 1 60 6 107 11 105
5 -1 27 -25 50 -53z m448 38 c11 -10 50 -60 87 -110 51 -71 61 -90 44 -84 -41
16 -162 68 -191 82 -24 11 -28 17 -23 42 6 31 42 87 56 87 4 0 17 -8 27 -17z
m363 -73 c-4 -57 -9 -74 -25 -83 -23 -13 -88 -37 -92 -34 -4 5 112 195 117
192 3 -2 3 -36 0 -75z m-1480 51 c11 -8 0 -17 -50 -40 -78 -37 -116 -39 -178
-7 -91 46 -85 51 71 54 82 2 148 -1 157 -7z m-315 -31 c4 -6 26 -20 50 -31 24
-11 51 -29 60 -39 17 -18 16 -21 -11 -65 -16 -25 -32 -45 -36 -45 -4 0 -20
-18 -35 -41 -18 -28 -29 -36 -33 -27 -12 23 -22 258 -11 258 5 0 13 -5 16 -10z
m390 -78 c3 -42 8 -89 10 -104 3 -16 1 -28 -4 -28 -5 0 -42 22 -82 48 -71 46
-106 78 -98 86 17 17 146 83 156 79 6 -3 14 -37 18 -81z m865 -2 c0 -13 -33
-62 -62 -94 -10 -11 -18 -23 -18 -28 0 -21 -22 -4 -40 32 -25 49 -26 87 -2 92
45 10 122 8 122 -2z m248 -65 c40 -16 69 -32 65 -36 -10 -9 -133 -39 -160 -39
-20 0 -46 45 -68 118 l-6 22 48 -18 c26 -11 81 -32 121 -47z m-180 0 c32 -66
29 -81 -15 -89 -58 -9 -103 -7 -103 5 0 23 73 129 89 129 4 0 17 -20 29 -45z
m-236 4 c10 -13 21 -39 24 -56 l7 -33 -47 -2 c-25 -1 -59 -2 -76 -3 -16 -1
-30 2 -30 7 0 16 83 119 93 115 6 -2 19 -14 29 -28z m-801 -36 c43 -26 79 -51
79 -55 0 -9 -32 -14 -170 -28 -58 -6 -121 -14 -140 -17 l-34 -6 34 44 c98 128
113 132 231 62z m1498 -30 c0 -32 -4 -80 -8 -108 l-6 -50 -36 55 c-71 109 -72
121 -17 145 61 26 68 22 67 -42z m-239 -28 c-6 -8 -36 -30 -65 -50 -30 -19
-57 -40 -60 -45 -11 -18 -25 -11 -25 13 0 37 15 49 86 73 38 12 71 23 73 23 2
1 -2 -6 -9 -14z m90 5 c24 -13 100 -123 100 -145 0 -15 -16 -15 -147 -9 -82 4
-150 8 -152 10 -7 7 162 154 177 154 2 0 12 -5 22 -10z m-1260 -50 c0 -6 -48
-63 -107 -128 -143 -157 -161 -174 -173 -167 -10 6 -80 215 -80 240 0 9 6 18
13 20 9 4 277 39 335 44 6 1 12 -4 12 -9z m-7 -152 c-46 -217 -44 -215 -148
-197 -36 6 -68 15 -71 21 -3 5 10 30 30 56 35 44 205 232 210 232 2 0 -8 -51
-21 -112z m103 2 c29 -78 54 -118 114 -183 48 -53 57 -71 34 -64 -11 3 -70 11
-131 18 -65 7 -117 17 -123 24 -8 9 -3 45 16 127 44 192 45 196 54 173 4 -11
20 -54 36 -95z m1259 -2 c15 -14 -192 -213 -209 -199 -14 12 -106 184 -106
199 0 6 15 12 33 14 62 6 272 -4 282 -14z m-332 -45 c8 -16 30 -57 51 -91 20
-35 36 -70 36 -78 0 -11 -20 -14 -95 -14 -112 0 -111 -1 -60 100 19 38 35 79
35 90 0 28 16 25 33 -7z m347 -14 c-6 -11 -18 -46 -26 -77 -23 -87 -36 -102
-89 -102 -34 0 -45 4 -45 15 0 13 155 185 167 185 2 0 -1 -9 -7 -21z m-1453
-192 c13 -12 13 -22 3 -63 -6 -27 -14 -61 -17 -77 -3 -15 -9 -29 -13 -32 -7
-4 -50 58 -110 159 l-23 39 72 -5 c46 -4 78 -11 88 -21z m313 -26 l35 -8 -65
-30 c-256 -120 -270 -126 -270 -110 0 28 32 142 43 155 9 12 31 13 117 8 58
-4 121 -11 140 -15z m886 5 c16 -12 19 -28 20 -106 1 -50 -3 -89 -7 -88 -4 2
-54 46 -110 98 l-103 95 40 6 c74 11 140 9 160 -5z m148 -9 c16 -12 15 -15 -8
-47 -14 -19 -34 -52 -45 -72 -25 -44 -41 -56 -42 -31 -3 59 0 143 6 152 9 15
67 14 89 -2z m-465 -95 c-31 -61 -50 -88 -64 -90 -20 -3 -165 109 -165 127 0
5 30 12 66 16 37 4 96 15 133 24 36 10 68 16 70 14 3 -2 -15 -43 -40 -91z
m194 -8 c59 -52 107 -99 107 -105 0 -6 -58 -8 -152 -7 l-153 3 3 25 c3 29 72
180 82 180 4 0 55 -43 113 -96z m-524 51 c13 -13 10 -21 -21 -67 -20 -29 -41
-63 -47 -76 -19 -35 -28 -19 -42 74 -10 69 -10 87 0 94 17 10 92 -7 110 -25z
m-237 -131 c-26 -72 -54 -141 -62 -153 l-15 -22 -100 68 c-55 38 -100 76 -100
84 0 18 304 174 316 162 5 -5 -12 -67 -39 -139z m111 -63 c-7 -30 -126 -108
-131 -86 -2 8 15 63 38 123 67 176 60 169 81 72 9 -47 15 -96 12 -109z m236
135 c25 -19 61 -50 80 -69 29 -31 31 -36 15 -40 -28 -9 -254 -21 -254 -14 0
10 70 125 86 141 20 21 19 21 73 -18z m487 -160 c-40 -33 -148 -96 -164 -96
-14 0 -102 86 -102 100 0 11 51 16 185 18 l110 1 -29 -23z m-404 -43 c-76 -88
-107 -114 -125 -108 -14 6 -117 118 -117 128 0 10 158 32 248 35 l44 2 -50
-57z m145 -10 c24 -25 42 -51 40 -57 -5 -16 -247 -62 -247 -46 0 16 132 150
148 150 9 0 35 -21 59 -47z m-368 -40 c54 -60 62 -78 34 -69 -10 3 -69 15
-130 27 -62 12 -110 26 -107 31 10 16 109 68 131 68 14 0 40 -21 72 -57z"/>
</g>
</svg>
